<?xml version="1.0" encoding="UTF-8" standalone="no"?>
<svg
   id="Calque_1"
   version="1.1"
   viewBox="0 0 1080 1080"
   sodipodi:docname="logo_ck.svg"
   inkscape:version="1.4.2 (f4327f4, 2025-05-13)"
   xmlns:inkscape="http://www.inkscape.org/namespaces/inkscape"
   xmlns:sodipodi="http://sodipodi.sourceforge.net/DTD/sodipodi-0.dtd"
   xmlns="http://www.w3.org/2000/svg"
   xmlns:svg="http://www.w3.org/2000/svg">
  <defs
     id="defs2" />
  <sodipodi:namedview
     id="namedview2"
     pagecolor="#ffffff"
     bordercolor="#000000"
     borderopacity="0.25"
     inkscape:showpageshadow="2"
     inkscape:pageopacity="0.0"
     inkscape:pagecheckerboard="0"
     inkscape:deskcolor="#d1d1d1"
     inkscape:zoom="0.71574074"
     inkscape:cx="539.30142"
     inkscape:cy="540"
     inkscape:window-width="1920"
     inkscape:window-height="991"
     inkscape:window-x="-9"
     inkscape:window-y="-9"
     inkscape:window-maximized="1"
     inkscape:current-layer="Calque_1" />
  <!-- Generator: Adobe Illustrator 29.1.0, SVG Export Plug-In . SVG Version: 2.1.0 Build 142)  -->
  <path
     d="M841.36,420.08l.05,231.57c-10.9,180.74-173.71,312.94-353.58,284.71-140.74-22.09-248.65-142.49-256.39-284.71l.05-232.6c1.05-1.18,7.22,5.58,8.23,6.64,32.46,33.92,63.98,68.82,96.28,102.91,2.68,71.72-10.88,138.17,25.34,203.62,80.15,144.79,293,133.78,359.04-17.81,26.01-59.69,13.33-126.72,18.51-189.92l102.46-104.42h0Z"
     id="path1"
     style="fill:#ffffff;fill-opacity:1" />
  <path
     d="M848.56,141.84v139.12l-306.63,313.6c-10.85-9.28-21.1-19.92-31.2-30.19-92.78-94.31-185.92-188.51-279.24-282.39v-140.15l304.57,305.9,312.5-305.9Z"
     id="path2"
     style="fill:#ffffff;fill-opacity:1" />
</svg>
